Coordinates
version=1
nRows=32
nColumns=22
inDegrees=yes

Units are S.I. units (second, meters, Newtons, ...)
If the header above contains a line with 'inDegrees', this indicates whether rotational values are in degrees (yes) or radians (no).

endheader
time	pelvis_tilt	pelvis_list	pelvis_rotation	pelvis_tx	pelvis_ty	pelvis_tz	hip_flexion_r	hip_adduction_r	hip_rotation_r	knee_angle_r	ankle_angle_r	subtalar_angle_r	hip_flexion_l	hip_adduction_l	hip_rotation_l	knee_angle_l	ankle_angle_l	subtalar_angle_l	lumbar_extension	lumbar_bending	lumbar_rotation
      2.49000000	     -2.85081908	     -7.68315021	    -11.06749159	     -0.02142578	      0.85175963	      0.43318069	    -10.19789270	      1.15723976	     -6.07004581	    -26.34193705	     13.07054572	     14.72554509	     31.38373008	    -16.53500384	    -40.42212159	    -27.18647938	      7.65950634	    -11.32546111	     -0.81269385	      0.56661505	     28.65233109
      2.50000000	     -2.75768689	     -7.67015346	    -10.11903825	     -0.01147027	      0.85274863	      0.43080345	    -10.04118165	      0.94488181	     -5.59767923	    -27.73549518	     11.06393020	     16.25256577	     31.50005701	    -16.17543314	    -39.11690407	    -28.21649547	      7.35234165	    -11.55737294	     -0.76386667	      0.18231521	     28.28977540
      2.51000000	     -2.67916757	     -7.76306471	     -9.13603723	     -0.00149899	      0.85389298	      0.42824945	     -9.79819480	      0.84413227	     -5.04026651	    -29.18096217	      8.81874916	     17.87785499	     31.60028642	    -15.85471401	    -37.73289794	    -29.17393771	      7.18944099	    -11.82603666	     -0.72041517	     -0.06775401	     27.93940182
      2.52000000	     -2.61611666	     -7.96010953	     -8.15638300	      0.00841905	      0.85517123	      0.42556818	     -9.44537385	      0.84588007	     -4.35647704	    -30.68086849	      6.38775097	     19.61668368	     31.66132470	    -15.58103200	    -36.32956921	    -30.01820759	      7.11466380	    -12.14403664	     -0.67499633	     -0.18272953	     27.64809678
      2.53000000	     -2.58305368	     -8.30031136	     -7.16935112	      0.01821855	      0.85648753	      0.42271710	     -8.95602214	      0.99052283	     -3.57212989	    -32.23715455	      3.81672921	     21.31689735	     31.71866614	    -15.39046105	    -34.88604728	    -30.77176457	      7.21566628	    -12.48874013	     -0.61628392	     -0.10575248	     27.38627336
      2.54000000	     -2.57263731	     -8.76986774	     -6.20912074	      0.02781539	      0.85781992	      0.41978416	     -8.30673603	      1.26341987	     -2.65703896	    -33.87529756	      1.19358551	     22.89584465	     31.75506982	    -15.29610386	    -33.46106896	    -31.42615403	      7.46145311	    -12.84602890	     -0.54848924	      0.14130662	     27.18897046
      2.55000000	     -2.55572504	     -9.38134349	     -5.27264755	      0.03713804	      0.85918084	      0.41679778	     -7.52319716	      1.68735043	     -1.61742333	    -35.58601564	     -1.42810297	     24.06494886	     31.75477198	    -15.32253599	    -32.04774600	    -31.99734162	      7.81467041	    -13.14106611	     -0.50778975	      0.56779786	     27.05799163
      2.56000000	     -2.55841227	    -10.01144560	     -4.43938537	      0.04615219	      0.86050633	      0.41387038	     -6.51971770	      2.12317163	     -0.43094021	    -37.45243727	     -3.96078792	     25.10455635	     31.70025880	    -15.40990158	    -30.84242134	    -32.46540445	      8.25062890	    -13.41788673	     -0.44707593	      1.03920042	     27.05429445
      2.57000000	     -2.53785294	    -10.63086729	     -3.67244637	      0.05483968	      0.86182303	      0.41096235	     -5.35350577	      2.54336482	      0.80012439	    -39.45681702	     -6.38758069	     25.80788783	     31.55720099	    -15.51655878	    -29.81086309	    -32.83333688	      8.74683905	    -13.60847553	     -0.41856667	      1.51796630	     27.14953774
      2.58000000	     -2.49673616	    -11.19741619	     -2.95918534	      0.06319152	      0.86310530	      0.40807705	     -4.02374242	      2.90523802	      1.99448652	    -41.59933752	     -8.71683531	     26.16569419	     31.33212852	    -15.60503999	    -28.95417248	    -33.10918924	      9.27099091	    -13.69804926	     -0.42034894	      1.95389692	     27.32622029
      2.59000000	     -2.43163200	    -11.66497115	     -2.27639423	      0.07122635	      0.86434141	      0.40516502	     -2.54744797	      3.14774589	      3.05748205	    -43.85820225	    -10.97534519	     26.18977613	     31.02102194	    -15.62141828	    -28.27278305	    -33.29233113	      9.79034635	    -13.68520673	     -0.45470492	      2.29651503	     27.55934888
      2.60000000	     -2.36160430	    -12.01089491	     -1.58428674	      0.07898271	      0.86547881	      0.40213379	     -0.93216972	      3.22790476	      3.89777523	    -46.18999278	    -13.17471960	     25.86334787	     30.65448586	    -15.51453666	    -27.70983025	    -33.38441157	     10.32925539	    -13.57124222	     -0.49557538	      2.52534597	     27.79618946
      2.61000000	     -2.24321386	    -12.22171093	     -0.85272464	      0.08650734	      0.86661070	      0.39890011	      0.74379653	      3.09636051	      4.45140781	    -48.53376174	    -15.33484860	     25.11452674	     30.18068536	    -15.26204934	    -27.28215446	    -33.37673932	     10.80406296	    -13.36945411	     -0.59079367	      2.62888590	     28.01489213
      2.62000000	     -2.11457606	    -12.28686283	     -0.06944581	      0.09385285	      0.86769609	      0.39540170	      2.46571766	      2.74005651	      4.79138200	    -50.81537154	    -17.36047329	     24.27199977	     29.63606928	    -14.82648076	    -26.92740168	    -33.25401230	     11.24018572	    -13.14598455	     -0.69057283	      2.59781934	     28.19906157
      2.63000000	     -1.97084040	    -12.25268166	      0.81119570	      0.10103688	      0.86875607	      0.39152582	      4.17445226	      2.20151289	      4.93773710	    -52.95484482	    -19.16322576	     23.33048749	     29.04312310	    -14.22701914	    -26.55733413	    -33.03305994	     11.62041506	    -12.91357989	     -0.80103630	      2.49486584	     28.29881339
      2.64000000	     -1.82239070	    -12.14801627	      1.81270394	      0.10808968	      0.86977282	      0.38723881	      5.83209878	      1.52416984	      4.96156365	    -54.90606026	    -20.54945120	     22.43089795	     28.42332669	    -13.47876588	    -26.11701448	    -32.72077294	     11.99370318	    -12.69536137	     -0.90426164	      2.35176020	     28.27312010
      2.65000000	     -1.63594828	    -12.04241325	      2.95185644	      0.11499549	      0.87082042	      0.38253440	      7.37132203	      0.79558928	      4.89554959	    -56.61876377	    -21.46796688	     21.43476037	     27.76863030	    -12.66354581	    -25.57206274	    -32.35110596	     12.29103420	    -12.50275037	     -1.03860099	      2.25033842	     28.14109543
      2.66000000	     -1.43122565	    -11.93886377	      4.22961159	      0.12174946	      0.87188120	      0.37743397	      8.78445939	      0.05418738	      4.82291401	    -58.07834909	    -21.80839028	     20.37670729	     27.08875709	    -11.77342634	    -24.87063807	    -31.89868886	     12.55487749	    -12.34502708	     -1.17687471	      2.19159112	     27.86694729
      2.67000000	     -1.18724845	    -11.85503713	      5.65329445	      0.12831085	      0.87294151	      0.37194202	     10.05485169	     -0.69081229	      4.70427155	    -59.29761032	    -21.57816188	     19.20351655	     26.38351785	    -10.84838926	    -24.02067751	    -31.41226490	     12.79190147	    -12.22650433	     -1.34344357	      2.19932408	     27.47576600
      2.68000000	     -0.91047177	    -11.78873752	      7.20933517	      0.13465596	      0.87399521	      0.36612413	     11.18302856	     -1.41500835	      4.58392922	    -60.27801812	    -20.80649073	     17.88829190	     25.64831567	     -9.89876004	    -23.02363603	    -30.87987233	     13.00380632	    -12.14704991	     -1.52900234	      2.26828921	     26.95373525
      2.69000000	     -0.60559710	    -11.72701404	      8.87927132	      0.14074808	      0.87501584	      0.36002939	     12.19051849	     -2.14019177	      4.44041661	    -61.04454349	    -19.62339138	     16.42303107	     24.88236952	     -8.93040536	    -21.90137245	    -30.30896627	     13.18442133	    -12.10140557	     -1.73224328	      2.38252915	     26.34326440
      2.70000000	     -0.28046116	    -11.66248530	     10.64985122	      0.14657714	      0.87597160	      0.35372842	     13.09088925	     -2.86389615	      4.28486885	    -61.61265049	    -18.15283583	     14.82730354	     24.09608266	     -7.95743109	    -20.67822129	    -29.71951953	     13.34150401	    -12.08472463	     -1.94300175	      2.52759575	     25.64388107
      2.71000000	      0.05145729	    -11.59064905	     12.50195514	      0.15211392	      0.87683038	      0.34728639	     13.91401277	     -3.58778929	      4.11889731	    -62.00282211	    -16.54407548	     13.17038792	     23.30673657	     -6.98856172	    -19.35601685	    -29.13142434	     13.46409336	    -12.08724141	     -2.15139501	      2.69151618	     24.89839913
      2.72000000	      0.36234637	    -11.51521817	     14.41122155	      0.15739694	      0.87756692	      0.34077430	     14.68831004	     -4.29294851	      3.97475241	    -62.21560607	    -14.92515654	     11.53380001	     22.53266268	     -6.03790234	    -17.97122768	    -28.53854813	     13.56720087	    -12.09781954	     -2.32082510	      2.86728703	     24.09216269
      2.73000000	      0.65534238	    -11.43095762	     16.35189532	      0.16241949	      0.87817863	      0.33428362	     15.42182384	     -4.96526470	      3.88754171	    -62.26846064	    -13.38500596	      9.99304530	     21.77896102	     -5.11862020	    -16.53746185	    -27.97248093	     13.65546062	    -12.10638761	     -2.46311414	      3.03749246	     23.28808776
      2.74000000	      0.91893401	    -11.35211993	     18.30748911	      0.16725000	      0.87867107	      0.32785027	     16.11954324	     -5.57111096	      3.88710015	    -62.14923599	    -11.98575852	      8.65168693	     21.05102743	     -4.24920677	    -15.07760036	    -27.42418856	     13.73558710	    -12.09947458	     -2.55483300	      3.20968821	     22.47697406
      2.75000000	      1.16525521	    -11.28028008	     20.26048669	      0.17190739	      0.87906896	      0.32154325	     16.77169828	     -6.07993017	      4.01393613	    -61.85931301	    -10.75628493	      7.59151622	     20.34561920	     -3.44353963	    -13.59540012	    -26.91520889	     13.81100894	    -12.06869731	     -2.61390229	      3.37695546	     21.69855795
      2.76000000	      1.39871015	    -11.22275854	     22.19988782	      0.17643543	      0.87939085	      0.31537916	     17.37210367	     -6.46553409	      4.29119564	    -61.39417286	     -9.69541472	      6.90652219	     19.65518063	     -2.71127458	    -12.10414976	    -26.43712937	     13.88815950	    -12.00851203	     -2.63868204	      3.54808232	     20.95749101
      2.77000000	      1.60438981	    -11.18845318	     24.11018861	      0.18084174	      0.87962727	      0.30941317	     17.94128388	     -6.71625622	      4.73449428	    -60.75125539	     -8.77982392	      6.63196134	     19.00191071	     -2.06173892	    -10.63640015	    -25.98738886	     13.97926133	    -11.92376544	     -2.61735238	      3.71561585	     20.25433706
      2.78000000	      1.82513684	    -11.16235468	     25.98431630	      0.18515855	      0.87983292	      0.30363577	     18.43760015	     -6.82791142	      5.34713677	    -59.94751748	     -7.94758780	      6.56009830	     18.34272030	     -1.49624166	     -9.18711704	    -25.58093930	     14.08424519	    -11.82851860	     -2.59569582	      3.88655612	     19.61974031
      2.79000000	      2.03152725	    -11.14509287	     27.82488010	      0.18935361	      0.87994902	      0.29806246	     18.90343072	     -6.82440015	      6.11353342	    -59.00982022	     -7.13563653	      6.68580473	     17.72276190	     -0.99701461	     -7.75775620	    -25.23238607	     14.20334861	    -11.72787218	     -2.55140944	      4.04448787	     19.03838261
      2.80000000	      2.29731948	    -11.12480010	     29.63778946	      0.19349121	      0.88015553	      0.29260523	     19.24185888	     -6.68942554	      7.02760085	    -57.89394058	     -6.45554726	      7.19458714	     17.01844197	     -0.57679849	     -6.31635325	    -24.85462427	     14.33413927	    -11.58535661	     -2.55783180	      4.22173479	     18.53664595
